<?xml version="1.0" encoding="iso-8859-1"?>
<!-- Generator: Adobe Illustrator 21.0.0, SVG Export Plug-In . SVG Version: 6.00 Build 0)  -->
<svg version="1.1" id="Capa_1" xmlns="http://www.w3.org/2000/svg" xmlns:xlink="http://www.w3.org/1999/xlink" x="0px" y="0px"
	 viewBox="0 0 508.965 508.965" style="enable-background:new 0 0 508.965 508.965;" xml:space="preserve">
<g>
	<path style="fill:#C03A2B;" d="M410.686,75.067c0,0,43.39,17.356,43.39,86.78v52.068c0,0-8.678,26.034-86.78,17.356H141.669
		c-78.102,8.678-86.78-17.356-86.78-17.356v-52.068c0-69.424,43.39-86.78,43.39-86.78H410.686z"/>
	<path style="fill:#E64C3C;" d="M323.906,22.999c24.98,23.216,54.54,40.951,86.78,52.068c0,0-52.068,130.169-52.068,242.983
		c-0.709,53.504,3.996,106.943,14.041,159.501c1.886,8.786-3.292,17.547-11.897,20.133c-16.644,5.016-48.935,11.281-106.279,11.281
		s-89.635-6.266-106.279-11.281c-8.614-2.586-13.794-11.359-11.897-20.15c10.044-52.552,14.748-105.985,14.041-159.484
		c0-112.814-52.068-242.983-52.068-242.983c32.24-11.116,61.799-28.852,86.78-52.068H323.906z"/>
	<g>
		<path style="fill:#C03A2B;" d="M254.482,22.999c-16.335-0.155-32.35-4.538-46.488-12.722c-3.426-2.445-8.112-2.079-11.116,0.868
			l-11.819,11.854c0,0,17.356,60.746,69.424,78.102"/>
		<path style="fill:#C03A2B;" d="M254.482,22.999c16.334-0.155,32.35-4.538,46.488-12.722c3.426-2.445,8.112-2.079,11.116,0.868
			l11.819,11.854c0,0-17.356,60.746-69.424,78.102"/>
	</g>
	<g>
		<path style="fill:#802D40;" d="M254.482,109.779c-0.932,0.001-1.858-0.149-2.742-0.443c-55.773-18.588-74.266-81.295-75.03-83.951
			c-0.865-3.032-0.018-6.294,2.213-8.522l11.819-11.819c5.968-5.925,15.326-6.719,22.207-1.883
			c12.681,7.165,26.969,11.004,41.533,11.16c4.793,0,8.678,3.885,8.678,8.678s-3.885,8.678-8.678,8.678
			c-18.108-0.144-35.858-5.068-51.452-14.275l-8.01,7.94c5.207,13.928,23.318,54.567,62.204,67.523
			c4.042,1.343,6.512,5.42,5.83,9.624C262.373,106.694,258.741,109.782,254.482,109.779z"/>
		<path style="fill:#802D40;" d="M254.482,109.779c-4.259,0.003-7.891-3.085-8.572-7.289c-0.682-4.204,1.788-8.282,5.83-9.624
			c39.051-13.017,57.092-53.639,62.221-67.541l-8.01-8.01c-15.583,9.258-33.344,14.214-51.469,14.362
			c-4.793,0-8.678-3.885-8.678-8.678s3.885-8.678,8.678-8.678c14.565-0.156,28.854-3.998,41.533-11.169
			c6.887-4.836,16.25-4.035,22.216,1.9l11.811,11.811c2.231,2.228,3.078,5.49,2.213,8.522c-0.764,2.655-19.256,65.362-75.03,83.951
			C256.34,109.63,255.414,109.779,254.482,109.779z"/>
	</g>
	<g>
		<path style="fill:#F0C419;" d="M141.669,101.101c-4.259,0.003-7.891-3.085-8.572-7.289c-0.682-4.204,1.788-8.281,5.83-9.624
			c11.187-3.381,21.76-8.532,31.319-15.256c3.405-3.289,8.818-3.242,12.165,0.106c3.347,3.347,3.394,8.76,0.106,12.165
			c-9.841,9.841-35.241,18.501-38.105,19.456C143.527,100.952,142.601,101.101,141.669,101.101z"/>
		<path style="fill:#F0C419;" d="M367.296,101.101c-0.932,0.001-1.858-0.149-2.742-0.443c-2.864-0.955-28.264-9.615-38.105-19.456
			c-3.289-3.405-3.242-8.818,0.106-12.165c3.347-3.347,8.76-3.394,12.165-0.106c9.557,6.727,20.131,11.878,31.319,15.256
			c4.042,1.343,6.512,5.42,5.83,9.624C375.187,98.016,371.555,101.104,367.296,101.101z"/>
		<path style="fill:#F0C419;" d="M159.025,170.524c-2.298-0.032-4.498-0.931-6.161-2.517c-0.373-0.412-0.721-0.847-1.041-1.302
			c-0.319-0.504-0.608-1.025-0.868-1.562c-0.189-0.536-0.331-1.088-0.425-1.649c-0.146-0.537-0.208-1.093-0.182-1.649
			c-0.007-2.305,0.898-4.52,2.517-6.161c2.483-2.503,6.233-3.256,9.489-1.904s5.371,4.539,5.35,8.065
			c-0.013,0.554-0.074,1.105-0.182,1.649c-0.074,0.575-0.247,1.133-0.512,1.649c-0.194,0.551-0.456,1.076-0.781,1.562
			c-0.32,0.455-0.668,0.889-1.041,1.302C163.522,169.592,161.322,170.491,159.025,170.524z"/>
		<path style="fill:#F0C419;" d="M185.059,170.524c-3.305,0.018-6.333-1.843-7.81-4.799l-8.678-17.356
			c-2.142-4.289-0.402-9.503,3.888-11.646c4.289-2.142,9.503-0.402,11.646,3.888l8.678,17.356c1.341,2.684,1.201,5.87-0.371,8.426
			C190.839,168.948,188.059,170.511,185.059,170.524z"/>
		<path style="fill:#F0C419;" d="M211.093,170.524c-3.305,0.018-6.333-1.843-7.81-4.799l-17.356-34.712
			c-2.142-4.289-0.402-9.503,3.888-11.646c4.289-2.142,9.503-0.402,11.646,3.888l17.356,34.712c1.341,2.684,1.201,5.87-0.371,8.426
			C216.873,168.948,214.093,170.511,211.093,170.524z"/>
		<path style="fill:#F0C419;" d="M315.228,194.823c-3.423,0.001-6.769-1.014-9.615-2.916l-17.356-11.576
			c-4.835-3.218-7.741-8.641-7.741-14.449v-38.747c0-9.585,7.771-17.356,17.356-17.356h34.712c9.585,0,17.356,7.771,17.356,17.356
			v38.747c-0.001,5.803-2.903,11.222-7.732,14.44l-17.356,11.568C322.005,193.799,318.656,194.82,315.228,194.823z M332.584,127.134
			h-34.712v38.747l17.356,11.585l17.356-11.568V127.134z"/>
	</g>
</g>
<g>
</g>
<g>
</g>
<g>
</g>
<g>
</g>
<g>
</g>
<g>
</g>
<g>
</g>
<g>
</g>
<g>
</g>
<g>
</g>
<g>
</g>
<g>
</g>
<g>
</g>
<g>
</g>
<g>
</g>
</svg>
